<svg width="11" height="9" xmlns="http://www.w3.org/2000/svg">
 <title>58B37759-70D2-4EC7-B63F-38F03D09147A</title>

 <g>
  <title>background</title>
  <rect fill="none" id="canvas_background" height="402" width="582" y="-1" x="-1"/>
 </g>
 <g>
  <title>Layer 1</title>
  <path id="svg_1" fill-rule="evenodd" fill="#9B9B9B" d="m8.094,5.335056l-7.07,0c-0.496,0 -0.896,-0.374 -0.896,-0.836c0,-0.46 0.401,-0.834 0.896,-0.834l7.07,0l-1.562,-2.152a0.692,0.692 0 0 1 -0.094,-0.622c0.07,-0.21 0.239,-0.38 0.458,-0.463c0.47,-0.22 1.042,-0.098 1.36,0.292l2.274,3.138a0.163,0.163 0 0 1 0.035,0.042a0.763,0.763 0 0 1 0.194,0.208c0.058,0.094 0.092,0.2 0.098,0.309l0.007,0.042c0,0.016 0.008,0.025 0.008,0.041a0.171,0.171 0 0 1 -0.008,0.042l-0.007,0.025a0.125,0.125 0 0 0 -0.005,0.025a0.673,0.673 0 0 1 -0.046,0.217c-0.014,0.025 -0.035,0.05 -0.05,0.083a0.995,0.995 0 0 1 -0.117,0.159c-0.027,0.025 -0.066,0.042 -0.096,0.067l-2.293,3.161c-0.318,0.39 -0.89,0.514 -1.36,0.292a0.756,0.756 0 0 1 -0.454,-0.463a0.692,0.692 0 0 1 0.096,-0.622l1.562,-2.152l0,0.001z"/>
 </g>
</svg>