<svg width="16" height="17" viewBox="0 0 16 17" xmlns="http://www.w3.org/2000/svg"><title>C9F10F57-0D28-4895-AB80-D1F0EE3B228C</title><path d="M15.7 16.298l-4.02-1.043C8.26 17.24 3.955 16.304 1.59 13.06-.775 9.817-.472 5.26 2.3 2.385 5.07-.49 9.46-.804 12.585 1.651c3.125 2.454 4.026 6.925 2.112 10.474l1.004 4.173zM12.432 3.375C9.98.825 6.03.725 3.461 3.15.896 5.577.62 9.668 2.838 12.441c2.217 2.772 6.142 3.245 8.912 1.073l1.904.66-.635-1.978c1.953-2.681 1.702-6.445-.587-8.821zm-1.167 5.84c-.565 0-1.023-.476-1.023-1.063 0-.586.458-1.062 1.023-1.062.566 0 1.024.476 1.024 1.062 0 .587-.458 1.063-1.024 1.063zm-3.412 0c-.565 0-1.024-.476-1.024-1.063 0-.586.459-1.062 1.024-1.062s1.024.476 1.024 1.062c0 .587-.459 1.063-1.024 1.063zm-3.412 0c-.566 0-1.024-.476-1.024-1.063 0-.586.458-1.062 1.024-1.062.565 0 1.023.476 1.023 1.062 0 .587-.458 1.063-1.023 1.063z" fill="#4990E2" fill-rule="evenodd"/></svg>