<?xml version="1.0" encoding="utf-8"?>
<!-- Generator: Adobe Illustrator 19.0.0, SVG Export Plug-In . SVG Version: 6.00 Build 0)  -->
<svg version="1.1" id="Layer_1" xmlns="http://www.w3.org/2000/svg" xmlns:xlink="http://www.w3.org/1999/xlink" x="0px" y="0px"
	 width="11px" height="9px" viewBox="-292 416.9 11 9" style="enable-background:new -292 416.9 11 9;" xml:space="preserve">
<style type="text/css">
	.st0{fill:none;}
	.st1{fill:#FFFFFF;}
</style>
<title>58B37759-70D2-4EC7-B63F-38F03D09147A</title>
<g>
	<title>background</title>
	<rect id="canvas_background" x="-293" y="415.9" class="st0" width="2.4" height="2.5"/>
</g>
<g>
	<title>Layer 1</title>
	<path id="svg_1" class="st1" d="M-289.1,420.5h7.1c0.5,0,0.9,0.4,0.9,0.8c0,0.5-0.4,0.8-0.9,0.8h-7.1l1.6,2.2
		c0.1,0.2,0.2,0.4,0.1,0.6c-0.1,0.2-0.2,0.4-0.5,0.5c-0.5,0.2-1,0.1-1.4-0.3l-2.3-3.1c0,0,0,0,0,0c-0.1-0.1-0.1-0.1-0.2-0.2
		c-0.1-0.1-0.1-0.2-0.1-0.3l0,0c0,0,0,0,0,0c0,0,0,0,0,0l0,0c0,0,0,0,0,0c0-0.1,0-0.1,0-0.2c0,0,0,0,0-0.1c0-0.1,0.1-0.1,0.1-0.2
		c0,0,0.1,0,0.1-0.1l2.3-3.2c0.3-0.4,0.9-0.5,1.4-0.3c0.2,0.1,0.4,0.2,0.5,0.5c0.1,0.2,0,0.4-0.1,0.6L-289.1,420.5
		C-289.1,420.5-289.1,420.5-289.1,420.5z"/>
</g>
</svg>
