<?xml version="1.0" encoding="utf-8"?>
<!-- Generator: Adobe Illustrator 19.0.0, SVG Export Plug-In . SVG Version: 6.00 Build 0)  -->
<svg version="1.1" id="Layer_1" xmlns="http://www.w3.org/2000/svg" xmlns:xlink="http://www.w3.org/1999/xlink" x="0px" y="0px"
	 width="9px" height="11px" viewBox="-293 415.9 9 11" style="enable-background:new -293 415.9 9 11;" xml:space="preserve">
<style type="text/css">
	.st0{fill:none;}
	.st1{fill:#FFFFFF;}
</style>
<title>58B37759-70D2-4EC7-B63F-38F03D09147A</title>
<g>
	<title>background</title>
	<rect id="canvas_background" x="-294" y="414.9" class="st0" width="11" height="13"/>
</g>
<g>
	<title>Layer 1</title>
	<path id="svg_1" class="st1" d="M-289.3,424v-7.1c0-0.5,0.4-0.9,0.8-0.9c0.5,0,0.8,0.4,0.8,0.9v7.1l2.2-1.6
		c0.2-0.1,0.4-0.2,0.6-0.1c0.2,0.1,0.4,0.2,0.5,0.5c0.2,0.5,0.1,1-0.3,1.4l-3.1,2.3c0,0,0,0,0,0c-0.1,0.1-0.1,0.1-0.2,0.2
		c-0.1,0.1-0.2,0.1-0.3,0.1l0,0c0,0,0,0,0,0c0,0,0,0,0,0l0,0c0,0,0,0,0,0c-0.1,0-0.1,0-0.2,0c0,0-0.1,0-0.1-0.1
		c-0.1,0-0.1-0.1-0.2-0.1c0,0,0-0.1-0.1-0.1l-3.2-2.3c-0.4-0.3-0.5-0.9-0.3-1.4c0.1-0.2,0.2-0.4,0.5-0.5c0.2-0.1,0.4,0,0.6,0.1
		L-289.3,424C-289.3,424-289.3,424-289.3,424z"/>
</g>
</svg>
