<svg width="25" height="24" viewBox="0 0 25 24" xmlns="http://www.w3.org/2000/svg"><title>E916F891-1673-4AC2-9569-6775C79019C7</title><g fill="none" fill-rule="evenodd"><path d="M.867 12c0-6.627 5.372-12 12-12 6.627 0 12 5.373 12 12s-5.373 12-12 12c-6.628 0-12-5.373-12-12z" fill="#55ACEE"/><path d="M12.507 9.754l.025.415-.42-.05c-1.527-.196-2.862-.857-3.995-1.967l-.554-.55-.142.406c-.303.907-.11 1.864.52 2.508.336.356.26.407-.319.195-.201-.067-.378-.118-.394-.093-.06.06.142.83.302 1.136.218.423.663.839 1.15 1.084l.411.195-.487.009c-.47 0-.487.008-.436.186.168.55.83 1.136 1.57 1.39l.52.178-.454.271c-.671.39-1.46.61-2.249.627-.378.009-.688.042-.688.068 0 .085 1.024.56 1.62.746 1.788.55 3.911.313 5.506-.628 1.133-.669 2.266-2 2.795-3.287.285-.687.57-1.941.57-2.543 0-.39.026-.44.496-.906.277-.272.537-.568.588-.653.084-.16.075-.16-.353-.017-.713.254-.814.22-.462-.16.26-.272.571-.763.571-.908 0-.025-.126.017-.268.094a4.683 4.683 0 0 1-.739.288l-.453.144-.412-.28c-.226-.152-.545-.322-.713-.373-.428-.118-1.083-.101-1.469.034-1.05.382-1.712 1.365-1.637 2.44z" fill="#FFF"/></g></svg>